<svg xmlns="http://www.w3.org/2000/svg" xmlns:xlink="http://www.w3.org/1999/xlink" width="76" height="76" viewBox="0 0 76 76">
  <defs>
    <clipPath id="clip-path">
      <rect id="Rectangle_7739" data-name="Rectangle 7739" width="48" height="45" fill="#deebff"/>
    </clipPath>
  </defs>
  <g id="Group_223485" data-name="Group 223485" transform="translate(-174 -609)">
    <rect id="Rectangle_27378" data-name="Rectangle 27378" width="76" height="76" rx="8" transform="translate(174 609)" fill="#e3fcef"/>
    <g id="Group_223467" data-name="Group 223467" transform="translate(-534 581)">
      <g id="Group_217587" data-name="Group 217587" transform="translate(722 44.004)">
        <g id="Group_217586" data-name="Group 217586">
          <g id="Group_217585" data-name="Group 217585" clip-path="url(#clip-path)">
            <path id="Path_157770" data-name="Path 157770" d="M27.366,28.863H12.624l-7.4,9.719A17.685,17.685,0,0,0,1.5,49.29c.015,5.973,3.215,13.14,18.5,13.14h6.565V33.677h4.47Z" transform="translate(-0.922 -17.994)" fill="#9ae6bf"/>
            <path id="Path_157771" data-name="Path 157771" d="M32.576,35.705l-5.209-6.842H12.624l-7.4,9.719A17.684,17.684,0,0,0,1.5,49.29C1.515,55.262,4.716,62.429,20,62.429c6.141,0,8.641-.119,8.641-.119" transform="translate(-0.922 -17.994)" fill="none" stroke="#283856" stroke-linecap="round" stroke-linejoin="round" stroke-width="1"/>
            <path id="Rectangle_7735" data-name="Rectangle 7735" d="M1.451,0H16.414a1.451,1.451,0,0,1,1.451,1.451v0A1.451,1.451,0,0,1,16.415,2.9H1.451A1.451,1.451,0,0,1,0,1.451v0A1.451,1.451,0,0,1,1.451,0Z" transform="translate(10.14 7.966)" fill="none" stroke="#283856" stroke-linecap="round" stroke-linejoin="round" stroke-width="1"/>
            <path id="Path_157772" data-name="Path 157772" d="M36.168,2.476l-1.435,1.4L34.1,3.261a4.286,4.286,0,0,0-5.961,0l-.631.616-1.435-1.4a3.47,3.47,0,0,0-4.826,0L19.471,4.212,24.424,8.9H37.819l4.953-4.689L40.994,2.476A3.47,3.47,0,0,0,36.168,2.476Z" transform="translate(-11.964 -0.935)" fill="none" stroke="#283856" stroke-linecap="round" stroke-linejoin="round" stroke-width="1"/>
            <rect id="Rectangle_7736" data-name="Rectangle 7736" width="19.707" height="26.607" transform="translate(27.715 17.71)" fill="none" stroke="#283856" stroke-linecap="round" stroke-linejoin="round" stroke-width="1"/>
            <rect id="Rectangle_7737" data-name="Rectangle 7737" width="14.177" height="3.048" transform="translate(30.48 20.412)" fill="none" stroke="#344154" stroke-linecap="round" stroke-linejoin="round" stroke-width="1"/>
            <rect id="Rectangle_7738" data-name="Rectangle 7738" width="14.177" height="13.256" transform="translate(30.48 28.183)" fill="none" stroke="#344154" stroke-linecap="round" stroke-linejoin="round" stroke-width="1"/>
            <line id="Line_1095" data-name="Line 1095" y2="9.985" transform="translate(34.037 31.454)" fill="none" stroke="#344154" stroke-linecap="round" stroke-linejoin="round" stroke-width="1"/>
            <line id="Line_1096" data-name="Line 1096" y2="13.348" transform="translate(37.568 28.183)" fill="none" stroke="#344154" stroke-linecap="round" stroke-linejoin="round" stroke-width="1"/>
            <line id="Line_1097" data-name="Line 1097" y2="13.348" transform="translate(41.099 28.274)" fill="none" stroke="#344154" stroke-linecap="round" stroke-linejoin="round" stroke-width="1"/>
            <line id="Line_1098" data-name="Line 1098" x1="14.177" transform="translate(30.48 31.408)" fill="none" stroke="#344154" stroke-linecap="round" stroke-linejoin="round" stroke-width="1"/>
            <line id="Line_1099" data-name="Line 1099" x1="14.177" transform="translate(30.48 34.857)" fill="none" stroke="#344154" stroke-linecap="round" stroke-linejoin="round" stroke-width="1"/>
            <line id="Line_1100" data-name="Line 1100" x1="14.177" transform="translate(30.48 38.305)" fill="none" stroke="#344154" stroke-linecap="round" stroke-linejoin="round" stroke-width="1"/>
          </g>
        </g>
        <path id="Path_157774" data-name="Path 157774" d="M9.891,6.866H7.673a4.091,4.091,0,0,1,.672,1.75H10.4l-.509,1.809H8.355a3.652,3.652,0,0,1-1.343,2.51,5.877,5.877,0,0,1-3.165,1.039l4.743,5.418v.129H5.668L.487,13.626.477,12.1H3.052a3.122,3.122,0,0,0,1.807-.462,2.211,2.211,0,0,0,.891-1.218H.273L.793,8.616H5.708q-.5-1.541-2.7-1.541H.273l.55-2.028h9.588Z" transform="translate(12.119 16.435)" fill="#172b4d" stroke="rgba(0,0,0,0)" stroke-width="1"/>
      </g>
    </g>
  </g>
</svg>
