<svg xmlns="http://www.w3.org/2000/svg" xmlns:xlink="http://www.w3.org/1999/xlink" width="76" height="76" viewBox="0 0 76 76">
  <defs>
    <clipPath id="clip-path">
      <rect id="Rectangle_7740" data-name="Rectangle 7740" width="43.517" height="48.9" fill="none"/>
    </clipPath>
  </defs>
  <g id="Group_223483" data-name="Group 223483" transform="translate(-956 -609)">
    <rect id="Rectangle_27380" data-name="Rectangle 27380" width="76" height="76" rx="8" transform="translate(956 609)" fill="#eae6ff"/>
    <g id="Group_223469" data-name="Group 223469" transform="translate(35 576)">
      <g id="Group_217592" data-name="Group 217592" transform="translate(-13145.758 -4850.45)">
        <g id="Rectangle_7741" data-name="Rectangle 7741" transform="translate(14097.518 4916.356)" fill="#9e92db" stroke="#9e92db" stroke-width="1">
          <path d="M3.024,0h0A3.024,3.024,0,0,1,6.049,3.024V9.678a0,0,0,0,1,0,0H0a0,0,0,0,1,0,0V3.024A3.024,3.024,0,0,1,3.024,0Z" stroke="none"/>
          <path d="M3.024.5h0A2.524,2.524,0,0,1,5.549,3.024V9.01a.168.168,0,0,1-.168.168H.668A.168.168,0,0,1,.5,9.01V3.024A2.524,2.524,0,0,1,3.024.5Z" fill="none"/>
        </g>
        <g id="Rectangle_7743" data-name="Rectangle 7743" transform="translate(14093.888 4928.454)" fill="#9e92db" stroke="#9e92db" stroke-width="1">
          <path d="M2.42,0H19.356a2.42,2.42,0,0,1,2.42,2.42v0a0,0,0,0,1,0,0H0a0,0,0,0,1,0,0v0A2.42,2.42,0,0,1,2.42,0Z" stroke="none"/>
          <path d="M1.831.5H19.945a1.331,1.331,0,0,1,1.331,1.331v0a.089.089,0,0,1-.089.089H.589A.089.089,0,0,1,.5,1.831v0A1.331,1.331,0,0,1,1.831.5Z" fill="none"/>
        </g>
        <g id="Rectangle_7742" data-name="Rectangle 7742" transform="translate(14105.985 4916.356)" fill="#9e92db" stroke="#9e92db" stroke-width="1">
          <path d="M3.024,0h0A3.024,3.024,0,0,1,6.049,3.024V9.678a0,0,0,0,1,0,0H0a0,0,0,0,1,0,0V3.024A3.024,3.024,0,0,1,3.024,0Z" stroke="none"/>
          <path d="M3.024.5h0A2.524,2.524,0,0,1,5.549,3.024V9.01a.168.168,0,0,1-.168.168H.668A.168.168,0,0,1,.5,9.01V3.024A2.524,2.524,0,0,1,3.024.5Z" fill="none"/>
        </g>
        <g id="Group_217591" data-name="Group 217591" transform="translate(14083 4897)">
          <g id="Group_217590" data-name="Group 217590" clip-path="url(#clip-path)">
            <path id="Path_172500" data-name="Path 172500" d="M38.885,7.285A24.494,24.494,0,0,1,20.3,2.044,24.494,24.494,0,0,1,1.713,7.285S-1.865,37.658,20.3,44.209C42.463,37.658,38.885,7.285,38.885,7.285Z" transform="translate(1.458 1.419)" fill="#9e92db"/>
            <path id="Path_157775" data-name="Path 157775" d="M43.578,7.943a27.57,27.57,0,0,1-20.919-5.9A27.57,27.57,0,0,1,1.74,7.943S-2.288,42.129,22.659,49.5C47.606,42.129,43.578,7.943,43.578,7.943Z" transform="translate(-0.901 -1.227)" fill="none" stroke="#283856" stroke-linecap="round" stroke-width="1"/>
            <path id="Path_172501" data-name="Path 172501" d="M21.756,11.932l9.266,5.316V29.632l-18.563-.273.21-12.446Z" fill="#eae6ff"/>
            <path id="Path_157776" data-name="Path 157776" d="M48.773,36.143,37.457,29.87,26.141,36.143" transform="translate(-15.699 -17.938)" fill="none" stroke="#344154" stroke-linecap="round" stroke-linejoin="round" stroke-width="1"/>
            <path id="Path_157777" data-name="Path 157777" d="M31.763,42.458V54.919H49.9V42.458" transform="translate(-19.075 -25.497)" fill="none" stroke="#344154" stroke-width="1"/>
            <path id="Path_157778" data-name="Path 157778" d="M37.659,57.872V50.144a2.768,2.768,0,1,1,5.537,0v7.728" transform="translate(-22.615 -28.451)" fill="none" stroke="#344154" stroke-width="1"/>
            <path id="Path_157779" data-name="Path 157779" d="M62.953,57.872V50.144a2.768,2.768,0,0,0-5.537,0v7.728" transform="translate(-34.48 -28.451)" fill="none" stroke="#344154" stroke-width="1"/>
            <path id="Path_157780" data-name="Path 157780" d="M48.772,82.134H26.141v-.526c0-1.428.793-2.586,1.77-2.586H47c.978,0,1.77,1.158,1.77,2.586Z" transform="translate(-15.698 -47.455)" fill="#eae6ff" stroke="#344154" stroke-width="1"/>
          </g>
        </g>
      </g>
    </g>
  </g>
</svg>
